<svg version="1.1" viewBox="0.0 0.0 222.38845144356955 164.8451443569554" fill="none" stroke="none" stroke-linecap="square" stroke-miterlimit="10" xmlns:xlink="http://www.w3.org/1999/xlink" xmlns="http://www.w3.org/2000/svg"><clipPath id="p.0"><path d="m0 0l222.38846 0l0 164.84514l-222.38846 0l0 -164.84514z" clip-rule="nonzero"/></clipPath><g clip-path="url(#p.0)"><path fill="#000000" fill-opacity="0.0" d="m0 0l222.38846 0l0 164.84514l-222.38846 0z" fill-rule="evenodd"/><path fill="#000000" fill-opacity="0.0" d="m0 0l220.40945 0l0 161.6063l-220.40945 0z" fill-rule="evenodd"/><path fill="#ea5b18" d="m109.82408 127.99999l-18.875 0l-11.921875 -31.375q-2.265625 -5.859375 -5.265625 -15.625q-2.546875 8.328125 -5.140625 15.296875l-11.859375 31.703125l-18.75 0l26.5625 -69.078125l-10.078125 -26.359375l18.03125 0l10.34375 26.359375l26.953125 69.078125z" fill-rule="nonzero"/><path fill="#202c54" d="m139.11546 127.99999l-26.953125 -69.140625l19.21875 0l13.015625 35.28125l3.78125 11.796875l1.875 -5.9375q0.921875 -2.921875 1.953125 -5.859375l13.15625 -35.28125l18.8125 0l-26.5625 69.140625l0 26.296883l-18.296875 0l0 -26.296883z" fill-rule="nonzero"/></g></svg>