<svg version="1.1" viewBox="0.0 0.0 592.992125984252 319.9763779527559" fill="none" stroke="none" stroke-linecap="square" stroke-miterlimit="10" xmlns:xlink="http://www.w3.org/1999/xlink" xmlns="http://www.w3.org/2000/svg"><clipPath id="p.0"><path d="m0 0l592.9921 0l0 319.97638l-592.9921 0l0 -319.97638z" clip-rule="nonzero"/></clipPath><g clip-path="url(#p.0)"><path fill="#000000" fill-opacity="0.0" d="m0 0l592.9921 0l0 319.97638l-592.9921 0z" fill-rule="evenodd"/><path fill="#000000" fill-opacity="0.0" d="m0 0l904.56696 0l0 323.2126l-904.56696 0z" fill-rule="evenodd"/><path fill="#202c54" d="m0 0l296.47278 0l0 319.99997l-296.47278 0l0 -319.99997z" fill-rule="nonzero"/><path fill="#ea5b18" d="m296.47278 0l296.47278 0l0 319.99997l-296.47278 0l0 -319.99997z" fill-rule="nonzero"/><path fill="#000000" fill-opacity="0.0" d="m0 14.603165l74.08565 0l0 306.62866l-74.08565 0l0 -306.62866z" fill-rule="nonzero"/><path fill="#010000" fill-opacity="0.0" d="m74.08565 14.603165l148.3015 0l0 306.62866l-148.3015 0l0 -306.62866z" fill-rule="nonzero"/><path fill="#ea5b18" d="m219.64815 255.99998l-37.75 0l-23.828125 -62.765625q-4.5625 -11.703125 -10.546875 -31.234375q-5.078125 16.65625 -10.28125 30.59375l-23.703125 63.40625l-37.5 0l53.125 -138.14062l-20.1875 -52.734375l36.0625 0l20.703125 52.734375l53.90625 138.14062z" fill-rule="nonzero"/><path fill="#000000" fill-opacity="0.0" d="m222.38715 14.603165l74.08563 0l0 306.62866l-74.08563 0l0 -306.62866z" fill-rule="nonzero"/><path fill="#010000" fill-opacity="0.0" d="m296.47278 14.603165l74.08563 0l0 306.62866l-74.08563 0l0 -306.62866z" fill-rule="nonzero"/><path fill="#000000" fill-opacity="0.0" d="m370.5584 14.603165l148.30151 0l0 306.62866l-148.30151 0l0 -306.62866z" fill-rule="nonzero"/><path fill="#202c54" d="m426.4178 255.99998l-53.90625 -138.28125l38.40625 0l26.046875 70.578125l7.546875 23.5625l3.78125 -11.84375q1.8125 -5.859375 3.90625 -11.71875l26.296875 -70.578125l37.625 0l-53.125 138.28125l0 52.60939l-36.578125 0l0 -52.60939z" fill-rule="nonzero"/><path fill="#010000" fill-opacity="0.0" d="m518.8599 14.603165l74.08563 0l0 306.62866l-74.08563 0l0 -306.62866z" fill-rule="nonzero"/><path fill="#ea5b18" d="m538.00055 255.99998l0 -36.59375l36.59375 0l0 36.59375l-36.59375 0z" fill-rule="nonzero"/><path fill="#000000" fill-opacity="0.0" d="m592.94556 14.603165l370.42822 0l0 306.62866l-370.42822 0l0 -306.62866z" fill-rule="nonzero"/><path fill="#010000" fill-opacity="0.0" d="m963.3738 14.603165l148.17126 0l0 306.62866l-148.17126 0l0 -306.62866z" fill-rule="nonzero"/><path fill="#000000" fill-opacity="0.0" d="m1111.545 14.603165l74.08569 0l0 306.62866l-74.08569 0l0 -306.62866z" fill-rule="nonzero"/><path fill="#010000" fill-opacity="0.0" d="m1185.6306 14.603165l74.08569 0l0 306.62866l-74.08569 0l0 -306.62866z" fill-rule="nonzero"/><path fill="#000000" fill-opacity="0.0" d="m1259.7163 14.603165l296.34253 0l0 306.62866l-296.34253 0l0 -306.62866z" fill-rule="nonzero"/><path fill="#010000" fill-opacity="0.0" d="m1556.0588 14.603165l74.08569 0l0 306.62866l-74.08569 0l0 -306.62866z" fill-rule="nonzero"/><path fill="#000000" fill-opacity="0.0" d="m1630.1445 14.603165l74.08569 0l0 306.62866l-74.08569 0l0 -306.62866z" fill-rule="nonzero"/><path fill="#010000" fill-opacity="0.0" d="m1704.2302 135.30157l74.08569 0l0 153.31433l-74.08569 0l0 -153.31433z" fill-rule="nonzero"/></g></svg>